<mxfile host="app.diagrams.net" modified="2024-04-29T02:40:06.476Z" agent="Mozilla/5.0 (Windows NT 10.0; Win64; x64; rv:125.0) Gecko/20100101 Firefox/125.0" etag="0lezsaAM6vP2unU541j7" version="24.2.1" type="device">
  <diagram name="Page-1" id="GAzlBbVdNplGqc41zSaA">
    <mxGraphModel dx="1016" dy="940" grid="1" gridSize="10" guides="1" tooltips="1" connect="1" arrows="1" fold="1" page="1" pageScale="1" pageWidth="1169" pageHeight="827" math="0" shadow="0">
      <root>
        <mxCell id="0" />
        <mxCell id="1" parent="0" />
        <mxCell id="rLnFbUhB1rJjn5ScQL3Y-1" value="&lt;div align=&quot;left&quot;&gt;Background&lt;/div&gt;" style="rounded=0;whiteSpace=wrap;html=1;align=left;verticalAlign=top;" vertex="1" parent="1">
          <mxGeometry width="630" height="940" as="geometry" />
        </mxCell>
        <mxCell id="rLnFbUhB1rJjn5ScQL3Y-2" value="&lt;p style=&quot;line-height: 120%;&quot;&gt;Header&lt;/p&gt;" style="rounded=0;whiteSpace=wrap;html=1;" vertex="1" parent="1">
          <mxGeometry x="160" width="310" height="50" as="geometry" />
        </mxCell>
        <mxCell id="rLnFbUhB1rJjn5ScQL3Y-3" value="Logo" style="rounded=0;whiteSpace=wrap;html=1;" vertex="1" parent="1">
          <mxGeometry x="160" width="50" height="50" as="geometry" />
        </mxCell>
        <mxCell id="rLnFbUhB1rJjn5ScQL3Y-4" value="Nav" style="rounded=0;whiteSpace=wrap;html=1;" vertex="1" parent="1">
          <mxGeometry x="220" y="10" width="240" height="30" as="geometry" />
        </mxCell>
        <mxCell id="rLnFbUhB1rJjn5ScQL3Y-5" value="Header" style="text;html=1;align=center;verticalAlign=middle;whiteSpace=wrap;rounded=0;" vertex="1" parent="1">
          <mxGeometry x="285" y="40" width="60" height="30" as="geometry" />
        </mxCell>
        <mxCell id="rLnFbUhB1rJjn5ScQL3Y-6" value="Content" style="rounded=0;whiteSpace=wrap;html=1;align=left;verticalAlign=top;spacing=2;" vertex="1" parent="1">
          <mxGeometry x="70" y="90" width="490" height="170" as="geometry" />
        </mxCell>
        <mxCell id="rLnFbUhB1rJjn5ScQL3Y-8" value="Profile" style="rounded=0;whiteSpace=wrap;html=1;align=left;verticalAlign=top;" vertex="1" parent="1">
          <mxGeometry x="90" y="120" width="450" height="120" as="geometry" />
        </mxCell>
        <mxCell id="rLnFbUhB1rJjn5ScQL3Y-9" value="Content" style="rounded=0;whiteSpace=wrap;html=1;align=left;verticalAlign=top;spacing=2;" vertex="1" parent="1">
          <mxGeometry x="70" y="280" width="490" height="410" as="geometry" />
        </mxCell>
        <mxCell id="rLnFbUhB1rJjn5ScQL3Y-10" value="Skills Bio" style="rounded=0;whiteSpace=wrap;html=1;align=left;verticalAlign=top;" vertex="1" parent="1">
          <mxGeometry x="90" y="310" width="450" height="350" as="geometry" />
        </mxCell>
        <mxCell id="rLnFbUhB1rJjn5ScQL3Y-11" value="Col 1" style="rounded=0;whiteSpace=wrap;html=1;align=left;verticalAlign=top;" vertex="1" parent="1">
          <mxGeometry x="90" y="340" width="220" height="120" as="geometry" />
        </mxCell>
        <mxCell id="rLnFbUhB1rJjn5ScQL3Y-12" value="Col 2" style="rounded=0;whiteSpace=wrap;html=1;align=left;verticalAlign=top;" vertex="1" parent="1">
          <mxGeometry x="320" y="340" width="220" height="120" as="geometry" />
        </mxCell>
        <mxCell id="rLnFbUhB1rJjn5ScQL3Y-26" value="Units" style="rounded=0;whiteSpace=wrap;html=1;align=left;verticalAlign=top;" vertex="1" parent="1">
          <mxGeometry x="90" y="480" width="450" height="180" as="geometry" />
        </mxCell>
        <mxCell id="rLnFbUhB1rJjn5ScQL3Y-13" value="" style="shape=table;startSize=0;container=1;collapsible=0;childLayout=tableLayout;fontSize=16;" vertex="1" parent="1">
          <mxGeometry x="90" y="510" width="450" height="160" as="geometry" />
        </mxCell>
        <mxCell id="rLnFbUhB1rJjn5ScQL3Y-14" value="" style="shape=tableRow;horizontal=0;startSize=0;swimlaneHead=0;swimlaneBody=0;strokeColor=inherit;top=0;left=0;bottom=0;right=0;collapsible=0;dropTarget=0;fillColor=none;points=[[0,0.5],[1,0.5]];portConstraint=eastwest;fontSize=16;" vertex="1" parent="rLnFbUhB1rJjn5ScQL3Y-13">
          <mxGeometry width="450" height="40" as="geometry" />
        </mxCell>
        <mxCell id="rLnFbUhB1rJjn5ScQL3Y-15" value="" style="shape=partialRectangle;html=1;whiteSpace=wrap;connectable=0;strokeColor=inherit;overflow=hidden;fillColor=none;top=0;left=0;bottom=0;right=0;pointerEvents=1;fontSize=16;" vertex="1" parent="rLnFbUhB1rJjn5ScQL3Y-14">
          <mxGeometry width="300" height="40" as="geometry">
            <mxRectangle width="300" height="40" as="alternateBounds" />
          </mxGeometry>
        </mxCell>
        <mxCell id="rLnFbUhB1rJjn5ScQL3Y-16" value="" style="shape=partialRectangle;html=1;whiteSpace=wrap;connectable=0;strokeColor=inherit;overflow=hidden;fillColor=none;top=0;left=0;bottom=0;right=0;pointerEvents=1;fontSize=16;" vertex="1" parent="rLnFbUhB1rJjn5ScQL3Y-14">
          <mxGeometry x="300" width="70" height="40" as="geometry">
            <mxRectangle width="70" height="40" as="alternateBounds" />
          </mxGeometry>
        </mxCell>
        <mxCell id="rLnFbUhB1rJjn5ScQL3Y-17" value="" style="shape=partialRectangle;html=1;whiteSpace=wrap;connectable=0;strokeColor=inherit;overflow=hidden;fillColor=none;top=0;left=0;bottom=0;right=0;pointerEvents=1;fontSize=16;" vertex="1" parent="rLnFbUhB1rJjn5ScQL3Y-14">
          <mxGeometry x="370" width="80" height="40" as="geometry">
            <mxRectangle width="80" height="40" as="alternateBounds" />
          </mxGeometry>
        </mxCell>
        <mxCell id="rLnFbUhB1rJjn5ScQL3Y-18" value="" style="shape=tableRow;horizontal=0;startSize=0;swimlaneHead=0;swimlaneBody=0;strokeColor=inherit;top=0;left=0;bottom=0;right=0;collapsible=0;dropTarget=0;fillColor=none;points=[[0,0.5],[1,0.5]];portConstraint=eastwest;fontSize=16;" vertex="1" parent="rLnFbUhB1rJjn5ScQL3Y-13">
          <mxGeometry y="40" width="450" height="40" as="geometry" />
        </mxCell>
        <mxCell id="rLnFbUhB1rJjn5ScQL3Y-19" value="" style="shape=partialRectangle;html=1;whiteSpace=wrap;connectable=0;strokeColor=inherit;overflow=hidden;fillColor=none;top=0;left=0;bottom=0;right=0;pointerEvents=1;fontSize=16;" vertex="1" parent="rLnFbUhB1rJjn5ScQL3Y-18">
          <mxGeometry width="300" height="40" as="geometry">
            <mxRectangle width="300" height="40" as="alternateBounds" />
          </mxGeometry>
        </mxCell>
        <mxCell id="rLnFbUhB1rJjn5ScQL3Y-20" value="" style="shape=partialRectangle;html=1;whiteSpace=wrap;connectable=0;strokeColor=inherit;overflow=hidden;fillColor=none;top=0;left=0;bottom=0;right=0;pointerEvents=1;fontSize=16;" vertex="1" parent="rLnFbUhB1rJjn5ScQL3Y-18">
          <mxGeometry x="300" width="70" height="40" as="geometry">
            <mxRectangle width="70" height="40" as="alternateBounds" />
          </mxGeometry>
        </mxCell>
        <mxCell id="rLnFbUhB1rJjn5ScQL3Y-21" value="" style="shape=partialRectangle;html=1;whiteSpace=wrap;connectable=0;strokeColor=inherit;overflow=hidden;fillColor=none;top=0;left=0;bottom=0;right=0;pointerEvents=1;fontSize=16;" vertex="1" parent="rLnFbUhB1rJjn5ScQL3Y-18">
          <mxGeometry x="370" width="80" height="40" as="geometry">
            <mxRectangle width="80" height="40" as="alternateBounds" />
          </mxGeometry>
        </mxCell>
        <mxCell id="rLnFbUhB1rJjn5ScQL3Y-22" value="" style="shape=tableRow;horizontal=0;startSize=0;swimlaneHead=0;swimlaneBody=0;strokeColor=inherit;top=0;left=0;bottom=0;right=0;collapsible=0;dropTarget=0;fillColor=none;points=[[0,0.5],[1,0.5]];portConstraint=eastwest;fontSize=16;" vertex="1" parent="rLnFbUhB1rJjn5ScQL3Y-13">
          <mxGeometry y="80" width="450" height="40" as="geometry" />
        </mxCell>
        <mxCell id="rLnFbUhB1rJjn5ScQL3Y-23" value="" style="shape=partialRectangle;html=1;whiteSpace=wrap;connectable=0;strokeColor=inherit;overflow=hidden;fillColor=none;top=0;left=0;bottom=0;right=0;pointerEvents=1;fontSize=16;" vertex="1" parent="rLnFbUhB1rJjn5ScQL3Y-22">
          <mxGeometry width="300" height="40" as="geometry">
            <mxRectangle width="300" height="40" as="alternateBounds" />
          </mxGeometry>
        </mxCell>
        <mxCell id="rLnFbUhB1rJjn5ScQL3Y-24" value="" style="shape=partialRectangle;html=1;whiteSpace=wrap;connectable=0;strokeColor=inherit;overflow=hidden;fillColor=none;top=0;left=0;bottom=0;right=0;pointerEvents=1;fontSize=16;" vertex="1" parent="rLnFbUhB1rJjn5ScQL3Y-22">
          <mxGeometry x="300" width="70" height="40" as="geometry">
            <mxRectangle width="70" height="40" as="alternateBounds" />
          </mxGeometry>
        </mxCell>
        <mxCell id="rLnFbUhB1rJjn5ScQL3Y-25" value="" style="shape=partialRectangle;html=1;whiteSpace=wrap;connectable=0;strokeColor=inherit;overflow=hidden;fillColor=none;top=0;left=0;bottom=0;right=0;pointerEvents=1;fontSize=16;" vertex="1" parent="rLnFbUhB1rJjn5ScQL3Y-22">
          <mxGeometry x="370" width="80" height="40" as="geometry">
            <mxRectangle width="80" height="40" as="alternateBounds" />
          </mxGeometry>
        </mxCell>
        <mxCell id="rLnFbUhB1rJjn5ScQL3Y-27" style="shape=tableRow;horizontal=0;startSize=0;swimlaneHead=0;swimlaneBody=0;strokeColor=inherit;top=0;left=0;bottom=0;right=0;collapsible=0;dropTarget=0;fillColor=none;points=[[0,0.5],[1,0.5]];portConstraint=eastwest;fontSize=16;" vertex="1" parent="rLnFbUhB1rJjn5ScQL3Y-13">
          <mxGeometry y="120" width="450" height="40" as="geometry" />
        </mxCell>
        <mxCell id="rLnFbUhB1rJjn5ScQL3Y-28" style="shape=partialRectangle;html=1;whiteSpace=wrap;connectable=0;strokeColor=inherit;overflow=hidden;fillColor=none;top=0;left=0;bottom=0;right=0;pointerEvents=1;fontSize=16;" vertex="1" parent="rLnFbUhB1rJjn5ScQL3Y-27">
          <mxGeometry width="300" height="40" as="geometry">
            <mxRectangle width="300" height="40" as="alternateBounds" />
          </mxGeometry>
        </mxCell>
        <mxCell id="rLnFbUhB1rJjn5ScQL3Y-29" style="shape=partialRectangle;html=1;whiteSpace=wrap;connectable=0;strokeColor=inherit;overflow=hidden;fillColor=none;top=0;left=0;bottom=0;right=0;pointerEvents=1;fontSize=16;" vertex="1" parent="rLnFbUhB1rJjn5ScQL3Y-27">
          <mxGeometry x="300" width="70" height="40" as="geometry">
            <mxRectangle width="70" height="40" as="alternateBounds" />
          </mxGeometry>
        </mxCell>
        <mxCell id="rLnFbUhB1rJjn5ScQL3Y-30" style="shape=partialRectangle;html=1;whiteSpace=wrap;connectable=0;strokeColor=inherit;overflow=hidden;fillColor=none;top=0;left=0;bottom=0;right=0;pointerEvents=1;fontSize=16;" vertex="1" parent="rLnFbUhB1rJjn5ScQL3Y-27">
          <mxGeometry x="370" width="80" height="40" as="geometry">
            <mxRectangle width="80" height="40" as="alternateBounds" />
          </mxGeometry>
        </mxCell>
        <mxCell id="rLnFbUhB1rJjn5ScQL3Y-31" value="Content" style="rounded=0;whiteSpace=wrap;html=1;align=left;verticalAlign=top;spacing=2;" vertex="1" parent="1">
          <mxGeometry x="70" y="710" width="490" height="170" as="geometry" />
        </mxCell>
        <mxCell id="rLnFbUhB1rJjn5ScQL3Y-32" value="History" style="rounded=0;whiteSpace=wrap;html=1;align=left;verticalAlign=top;" vertex="1" parent="1">
          <mxGeometry x="90" y="740" width="450" height="120" as="geometry" />
        </mxCell>
        <mxCell id="rLnFbUhB1rJjn5ScQL3Y-33" value="Footer" style="rounded=0;whiteSpace=wrap;html=1;align=left;verticalAlign=top;" vertex="1" parent="1">
          <mxGeometry y="900" width="630" height="40" as="geometry" />
        </mxCell>
      </root>
    </mxGraphModel>
  </diagram>
</mxfile>
